<svg xmlns="http://www.w3.org/2000/svg" xmlns:xlink="http://www.w3.org/1999/xlink" width="2000" zoomAndPan="magnify" viewBox="0 0 1500 1499.999933" height="2000" preserveAspectRatio="xMidYMid meet" version="1.0"><defs><clipPath id="30843e3bbf"><path d="M 155 40.585938 L 1265 40.585938 L 1265 1459.585938 L 155 1459.585938 Z M 155 40.585938 " clip-rule="nonzero"/></clipPath><clipPath id="2eae59b092"><path d="M 706 854 L 717 854 L 717 872 L 706 872 Z M 706 854 " clip-rule="nonzero"/></clipPath><clipPath id="c45f6a0c78"><path d="M 708.292969 856.246094 L 708.304688 856.246094 C 708.632812 855.785156 709.121094 855.449219 709.625 855.21875 C 711.101562 854.539062 713.03125 854.820312 714.050781 856.171875 C 714.375 856.601562 714.613281 857.121094 714.6875 857.65625 C 714.742188 858.011719 714.679688 858.378906 714.800781 858.722656 C 714.933594 859.097656 715.222656 859.394531 715.476562 859.6875 C 715.546875 859.769531 715.777344 859.960938 715.765625 860.078125 C 715.761719 860.164062 715.589844 860.257812 715.527344 860.304688 C 715.386719 860.417969 715.277344 860.554688 715.25 860.742188 C 715.230469 860.859375 715.25 860.988281 715.292969 861.101562 C 715.316406 861.160156 715.382812 861.25 715.367188 861.316406 C 715.347656 861.441406 715.171875 861.46875 715.136719 861.578125 C 715.101562 861.679688 715.289062 861.765625 715.292969 861.863281 C 715.296875 861.917969 715.242188 861.976562 715.214844 862.023438 C 715.164062 862.113281 715.121094 862.21875 715.117188 862.324219 C 715.105469 862.570312 715.300781 862.945312 715.140625 863.160156 C 715.003906 863.34375 714.742188 863.347656 714.535156 863.347656 C 714.230469 863.347656 713.902344 863.351562 713.628906 863.511719 C 713.367188 863.664062 713.253906 863.96875 713.191406 864.257812 C 713.074219 864.820312 713.105469 865.398438 713.105469 865.972656 L 713.121094 865.972656 C 713.167969 865.621094 713.300781 865.273438 713.398438 864.933594 C 713.484375 864.636719 713.570312 864.292969 713.816406 864.089844 C 714.007812 863.925781 714.289062 863.9375 714.523438 863.9375 C 714.90625 863.9375 715.332031 863.914062 715.589844 863.578125 C 715.65625 863.496094 715.710938 863.394531 715.738281 863.289062 C 715.792969 863.101562 715.78125 862.90625 715.746094 862.714844 C 715.726562 862.609375 715.671875 862.488281 715.6875 862.382812 C 715.722656 862.15625 716.007812 862.058594 715.894531 861.792969 C 715.867188 861.734375 715.820312 861.6875 715.78125 861.632812 C 715.984375 861.554688 716 861.292969 715.925781 861.113281 C 715.894531 861.035156 715.824219 860.945312 715.847656 860.855469 C 715.910156 860.601562 716.304688 860.558594 716.402344 860.292969 C 716.496094 860.027344 716.347656 859.800781 716.179688 859.601562 C 715.921875 859.296875 715.609375 859.007812 715.417969 858.652344 C 715.28125 858.394531 715.320312 858.121094 715.300781 857.84375 C 715.28125 857.566406 715.214844 857.289062 715.140625 857.023438 C 714.792969 855.785156 713.792969 854.859375 712.609375 854.46875 C 711.402344 854.066406 709.984375 854.265625 708.902344 854.925781 C 708.644531 855.082031 708.394531 855.269531 708.179688 855.480469 C 708.125 855.535156 707.988281 855.632812 707.980469 855.710938 C 707.972656 855.769531 708.054688 855.828125 708.085938 855.871094 C 708.171875 855.984375 708.230469 856.113281 708.292969 856.246094 M 710.359375 871.664062 C 710.179688 871.21875 709.960938 870.792969 709.804688 870.335938 C 709.363281 869.082031 709.175781 867.730469 709.460938 866.417969 C 709.628906 865.636719 709.976562 864.945312 710.269531 864.214844 C 710.484375 863.675781 710.683594 863.117188 710.625 862.527344 C 710.515625 861.347656 709.519531 860.53125 709.023438 859.515625 C 708.929688 859.316406 708.839844 859.066406 708.671875 858.914062 C 708.527344 858.785156 708.332031 858.808594 708.21875 858.96875 C 708.074219 859.171875 708.125 859.480469 708.1875 859.703125 C 708.332031 860.191406 708.664062 860.660156 708.703125 861.171875 C 708.394531 861.140625 708.058594 860.71875 707.890625 860.480469 C 707.382812 859.765625 707.335938 858.925781 707.554688 858.089844 C 707.644531 857.742188 707.800781 857.414062 707.886719 857.066406 C 707.957031 856.78125 708.003906 856.429688 707.832031 856.171875 C 707.777344 856.085938 707.628906 855.945312 707.515625 855.980469 C 707.4375 856.007812 707.402344 856.160156 707.375 856.230469 C 707.277344 856.480469 707.179688 856.730469 707.085938 856.980469 C 706.863281 857.5625 706.554688 858.164062 706.445312 858.78125 C 706.363281 859.242188 706.308594 859.730469 706.308594 860.199219 C 706.308594 860.757812 706.480469 861.28125 706.800781 861.75 C 707.324219 862.507812 708.265625 863.007812 708.578125 863.910156 C 708.730469 864.339844 708.671875 864.710938 708.609375 865.148438 C 708.546875 865.558594 708.480469 865.976562 708.464844 866.390625 C 708.398438 867.847656 708.738281 869.226562 709.480469 870.480469 C 709.648438 870.769531 709.839844 871.039062 710.046875 871.300781 C 710.140625 871.421875 710.234375 871.570312 710.359375 871.664062 M 708.152344 860.453125 C 708.023438 860.046875 707.820312 859.605469 707.886719 859.167969 C 707.914062 859.007812 707.984375 858.839844 708.109375 858.726562 C 708.167969 858.675781 708.273438 858.640625 708.316406 858.574219 C 708.378906 858.480469 708.40625 858.351562 708.460938 858.246094 C 708.597656 858 708.757812 857.765625 708.910156 857.527344 C 709.109375 857.214844 709.46875 856.558594 709.058594 856.25 C 708.933594 856.160156 708.84375 856.332031 708.777344 856.417969 C 708.570312 856.691406 708.351562 856.96875 708.160156 857.253906 C 707.695312 857.953125 707.460938 858.917969 707.730469 859.730469 C 707.808594 859.972656 707.945312 860.292969 708.152344 860.453125 M 708.605469 858.59375 C 708.855469 858.667969 709 858.953125 709.113281 859.167969 L 709.140625 859.167969 C 709.324219 858.738281 709.707031 858.417969 709.957031 858.03125 C 710.105469 857.804688 710.203125 857.492188 710.097656 857.226562 C 710.066406 857.144531 709.980469 857.007812 709.878906 857.058594 C 709.742188 857.121094 709.625 857.339844 709.527344 857.457031 C 709.3125 857.71875 709.070312 857.957031 708.851562 858.21875 C 708.761719 858.324219 708.628906 858.453125 708.605469 858.59375 M 709.695312 860.09375 C 709.804688 859.765625 710.023438 859.492188 710.234375 859.226562 C 710.320312 859.113281 710.414062 859.003906 710.492188 858.882812 C 710.589844 858.722656 710.660156 858.507812 710.59375 858.320312 C 710.566406 858.242188 710.496094 858.132812 710.402344 858.152344 C 710.246094 858.1875 710.074219 858.480469 709.964844 858.59375 C 709.785156 858.773438 709.609375 858.949219 709.441406 859.140625 C 709.386719 859.207031 709.277344 859.308594 709.269531 859.402344 C 709.253906 859.523438 709.417969 859.730469 709.480469 859.832031 C 709.535156 859.925781 709.597656 860.042969 709.695312 860.09375 M 712.46875 860.316406 C 712.324219 860.339844 712.195312 860.417969 712.042969 860.421875 C 711.921875 860.425781 711.734375 860.351562 711.621094 860.414062 C 711.523438 860.472656 711.503906 860.664062 711.40625 860.753906 C 711.261719 860.886719 710.996094 860.90625 710.878906 861.058594 C 710.8125 861.144531 710.832031 861.324219 710.953125 861.34375 C 711.039062 861.355469 711.121094 861.296875 711.195312 861.269531 C 711.390625 861.195312 711.617188 861.039062 711.816406 861.003906 C 711.941406 860.980469 712.03125 861.054688 712.144531 861.09375 C 712.277344 861.136719 712.625 861.125 712.734375 861.023438 C 712.796875 860.964844 712.769531 860.871094 712.753906 860.796875 C 712.71875 860.644531 712.6875 860.277344 712.46875 860.316406 M 711.832031 861.253906 C 711.722656 861.300781 711.660156 861.445312 711.574219 861.527344 C 711.445312 861.648438 711.238281 861.695312 711.128906 861.835938 C 711.078125 861.90625 711.039062 862.113281 711.152344 862.144531 C 711.226562 862.164062 711.316406 862.121094 711.378906 862.09375 C 711.542969 862.027344 711.8125 861.820312 711.988281 861.839844 C 712.132812 861.855469 712.15625 862 712.257812 862.070312 C 712.300781 862.097656 712.351562 862.09375 712.398438 862.097656 C 712.523438 862.113281 712.75 862.15625 712.867188 862.109375 C 712.914062 862.089844 712.945312 862.046875 712.949219 861.992188 C 712.953125 861.84375 712.902344 861.664062 712.878906 861.519531 C 712.871094 861.460938 712.871094 861.394531 712.832031 861.347656 C 712.78125 861.289062 712.695312 861.300781 712.625 861.3125 C 712.476562 861.332031 712.335938 861.355469 712.1875 861.320312 C 712.074219 861.296875 711.949219 861.210938 711.832031 861.253906 M 711.875 862.078125 C 711.734375 862.125 711.667969 862.355469 711.550781 862.449219 C 711.441406 862.535156 711.261719 862.542969 711.179688 862.660156 C 711.132812 862.730469 711.058594 862.929688 711.167969 862.976562 C 711.242188 863.011719 711.339844 862.957031 711.40625 862.925781 C 711.546875 862.863281 711.808594 862.6875 711.960938 862.726562 C 712.140625 862.773438 712.078125 862.9375 712.167969 863.039062 C 712.203125 863.082031 712.277344 863.082031 712.328125 863.089844 C 712.472656 863.105469 712.714844 863.207031 712.851562 863.160156 C 713.015625 863.109375 712.949219 862.691406 712.949219 862.554688 C 712.949219 862.5 712.964844 862.421875 712.925781 862.371094 C 712.859375 862.28125 712.625 862.3125 712.527344 862.3125 C 712.34375 862.304688 712.230469 862.242188 712.085938 862.132812 C 712.027344 862.085938 711.953125 862.050781 711.875 862.078125 M 711.777344 862.984375 C 711.660156 863.035156 711.617188 863.203125 711.519531 863.285156 C 711.378906 863.402344 711.152344 863.402344 711.03125 863.550781 C 710.988281 863.609375 710.882812 863.828125 710.984375 863.871094 C 711.046875 863.902344 711.136719 863.863281 711.195312 863.84375 C 711.363281 863.796875 711.644531 863.609375 711.816406 863.664062 C 711.996094 863.71875 711.863281 863.886719 711.941406 863.992188 C 711.980469 864.046875 712.054688 864.058594 712.117188 864.070312 C 712.273438 864.097656 712.585938 864.253906 712.738281 864.1875 C 712.800781 864.160156 712.804688 864.085938 712.816406 864.027344 C 712.835938 863.886719 712.855469 863.746094 712.875 863.609375 C 712.882812 863.546875 712.902344 863.464844 712.863281 863.410156 C 712.796875 863.308594 712.523438 863.320312 712.414062 863.300781 C 712.210938 863.265625 712.121094 863.171875 711.984375 863.035156 C 711.933594 862.984375 711.84375 862.957031 711.777344 862.984375 M 711.550781 863.933594 C 711.421875 863.972656 711.359375 864.125 711.25 864.195312 C 711.078125 864.316406 710.820312 864.316406 710.679688 864.476562 C 710.625 864.535156 710.472656 864.765625 710.589844 864.828125 C 710.65625 864.863281 710.761719 864.796875 710.828125 864.773438 C 710.949219 864.738281 711.078125 864.722656 711.195312 864.679688 C 711.292969 864.644531 711.398438 864.566406 711.507812 864.597656 C 711.734375 864.667969 711.53125 864.851562 711.628906 864.96875 C 711.671875 865.023438 711.769531 865.027344 711.832031 865.042969 C 711.984375 865.078125 712.136719 865.117188 712.285156 865.160156 C 712.351562 865.179688 712.445312 865.21875 712.511719 865.195312 C 712.582031 865.167969 712.589844 865.082031 712.605469 865.019531 C 712.640625 864.878906 712.78125 864.5625 712.695312 864.429688 C 712.636719 864.339844 712.4375 864.335938 712.34375 864.316406 C 712.109375 864.269531 711.910156 864.222656 711.757812 864.027344 C 711.703125 863.953125 711.644531 863.90625 711.550781 863.933594 M 711.179688 864.871094 C 711.058594 864.921875 710.996094 865.105469 710.882812 865.183594 C 710.703125 865.304688 710.414062 865.273438 710.265625 865.4375 C 710.203125 865.503906 710.046875 865.773438 710.191406 865.828125 C 710.25 865.851562 710.339844 865.820312 710.402344 865.804688 C 710.578125 865.765625 710.773438 865.722656 710.941406 865.660156 C 711.023438 865.628906 711.097656 865.554688 711.195312 865.574219 C 711.417969 865.625 711.21875 865.855469 711.332031 865.980469 C 711.386719 866.042969 711.5 866.035156 711.578125 866.046875 C 711.753906 866.070312 711.925781 866.09375 712.101562 866.117188 C 712.171875 866.125 712.257812 866.148438 712.328125 866.117188 C 712.453125 866.066406 712.457031 865.707031 712.484375 865.582031 C 712.496094 865.53125 712.511719 865.460938 712.472656 865.414062 C 712.417969 865.347656 712.265625 865.347656 712.1875 865.332031 C 711.964844 865.285156 711.628906 865.265625 711.464844 865.089844 C 711.390625 865.007812 711.324219 864.816406 711.179688 864.871094 M 710.910156 865.851562 C 710.742188 865.875 710.703125 866.09375 710.597656 866.195312 C 710.414062 866.375 710.058594 866.359375 709.929688 866.589844 C 709.886719 866.660156 709.832031 866.847656 709.910156 866.910156 C 709.96875 866.953125 710.046875 866.917969 710.105469 866.898438 C 710.28125 866.835938 710.539062 866.832031 710.699219 866.746094 C 710.785156 866.699219 710.816406 866.59375 710.925781 866.589844 C 711.199219 866.589844 711.015625 866.921875 711.179688 867.023438 C 711.261719 867.078125 711.398438 867.066406 711.492188 867.066406 C 711.726562 867.066406 712.011719 867.117188 712.242188 867.074219 C 712.433594 867.039062 712.363281 866.707031 712.371094 866.5625 C 712.375 866.496094 712.40625 866.40625 712.351562 866.355469 C 712.289062 866.296875 712.113281 866.320312 712.03125 866.3125 C 711.792969 866.289062 711.445312 866.265625 711.238281 866.136719 C 711.132812 866.070312 711.042969 865.832031 710.910156 865.851562 M 710.699219 866.945312 C 710.515625 867 710.539062 867.230469 710.4375 867.351562 C 710.261719 867.570312 709.890625 867.539062 709.820312 867.859375 C 709.804688 867.933594 709.78125 868.066406 709.855469 868.121094 C 709.910156 868.164062 709.992188 868.121094 710.046875 868.101562 C 710.21875 868.039062 710.515625 868.007812 710.652344 867.894531 C 710.738281 867.820312 710.734375 867.695312 710.871094 867.675781 C 711.152344 867.640625 711.003906 868.019531 711.183594 868.101562 C 711.273438 868.144531 711.398438 868.113281 711.492188 868.101562 C 711.75 868.082031 712.105469 868.101562 712.34375 868 C 712.5 867.933594 712.398438 867.59375 712.398438 867.453125 C 712.398438 867.390625 712.402344 867.308594 712.339844 867.269531 C 712.25 867.21875 712.101562 867.265625 712.003906 867.265625 C 711.714844 867.269531 711.371094 867.316406 711.097656 867.210938 C 710.96875 867.164062 710.835938 866.90625 710.699219 866.945312 M 710.714844 868.070312 C 710.496094 868.136719 710.574219 868.355469 710.488281 868.507812 C 710.363281 868.71875 710.03125 868.769531 709.976562 869.027344 C 709.957031 869.113281 709.960938 869.277344 710.050781 869.328125 C 710.105469 869.359375 710.179688 869.320312 710.230469 869.292969 C 710.378906 869.230469 710.636719 869.1875 710.75 869.078125 C 710.84375 868.984375 710.824219 868.832031 710.984375 868.804688 C 711.253906 868.753906 711.136719 869.164062 711.335938 869.222656 C 711.453125 869.253906 711.605469 869.195312 711.71875 869.167969 C 711.984375 869.101562 712.277344 869.0625 712.527344 868.957031 C 712.738281 868.867188 712.582031 868.585938 712.550781 868.421875 C 712.535156 868.34375 712.53125 868.226562 712.453125 868.183594 C 712.355469 868.128906 712.160156 868.210938 712.058594 868.234375 C 711.777344 868.289062 711.421875 868.386719 711.136719 868.316406 C 710.996094 868.28125 710.851562 868.027344 710.714844 868.070312 M 712.609375 869.121094 C 712.207031 869.207031 711.816406 869.433594 711.394531 869.441406 C 711.296875 869.445312 711.1875 869.414062 711.109375 869.351562 C 711.039062 869.296875 710.972656 869.179688 710.871094 869.230469 C 710.632812 869.347656 710.78125 869.558594 710.691406 869.730469 C 710.660156 869.792969 710.597656 869.824219 710.542969 869.859375 C 710.460938 869.914062 710.355469 869.984375 710.308594 870.078125 C 710.253906 870.1875 710.289062 870.4375 710.429688 870.464844 C 710.578125 870.488281 710.765625 870.371094 710.898438 870.316406 C 710.953125 870.292969 711.023438 870.28125 711.058594 870.234375 C 711.140625 870.128906 711.09375 869.921875 711.292969 869.9375 C 711.566406 869.957031 711.410156 870.410156 711.703125 870.359375 C 712.007812 870.308594 712.328125 870.144531 712.609375 870.027344 C 712.710938 869.988281 712.859375 869.957031 712.921875 869.859375 C 712.957031 869.804688 712.941406 869.746094 712.921875 869.6875 C 712.867188 869.539062 712.851562 869.28125 712.757812 869.15625 C 712.722656 869.109375 712.664062 869.109375 712.609375 869.121094 M 712.964844 870.128906 C 712.515625 870.222656 712.125 870.511719 711.664062 870.574219 C 711.476562 870.601562 711.296875 870.339844 711.136719 870.449219 C 710.925781 870.589844 711.082031 870.703125 711.015625 870.882812 C 710.941406 871.089844 710.691406 871.097656 710.777344 871.375 C 710.789062 871.417969 710.8125 871.464844 710.855469 871.488281 C 710.964844 871.546875 711.347656 871.460938 711.433594 871.371094 C 711.496094 871.304688 711.484375 871.113281 711.621094 871.140625 C 711.824219 871.183594 711.734375 871.578125 711.988281 871.542969 C 712.304688 871.496094 712.660156 871.265625 712.949219 871.136719 C 713.066406 871.085938 713.226562 871.039062 713.292969 870.925781 C 713.324219 870.878906 713.324219 870.808594 713.3125 870.753906 C 713.269531 870.59375 713.207031 870.296875 713.105469 870.167969 C 713.070312 870.121094 713.019531 870.117188 712.964844 870.128906 Z M 712.964844 870.128906 " clip-rule="nonzero"/></clipPath><linearGradient x1="364.122792" gradientTransform="matrix(0.0141602, 0, 0, 0.0144089, 700.430182, 852.861392)" y1="541.745304" x2="1208.983745" gradientUnits="userSpaceOnUse" y2="635.621932" id="2977405b8f"><stop stop-opacity="1" stop-color="rgb(20.892334%, 62.709045%, 64.494324%)" offset="0"/><stop stop-opacity="1" stop-color="rgb(20.840454%, 62.608337%, 64.416504%)" offset="0.0078125"/><stop stop-opacity="1" stop-color="rgb(20.736694%, 62.406921%, 64.260864%)" offset="0.015625"/><stop stop-opacity="1" stop-color="rgb(20.632935%, 62.205505%, 64.10675%)" offset="0.0234375"/><stop stop-opacity="1" stop-color="rgb(20.529175%, 62.005615%, 63.951111%)" offset="0.03125"/><stop stop-opacity="1" stop-color="rgb(20.425415%, 61.804199%, 63.796997%)" offset="0.0390625"/><stop stop-opacity="1" stop-color="rgb(20.321655%, 61.602783%, 63.641357%)" offset="0.046875"/><stop stop-opacity="1" stop-color="rgb(20.217896%, 61.401367%, 63.487244%)" offset="0.0546875"/><stop stop-opacity="1" stop-color="rgb(20.114136%, 61.199951%, 63.33313%)" offset="0.0625"/><stop stop-opacity="1" stop-color="rgb(20.010376%, 60.998535%, 63.17749%)" offset="0.0703125"/><stop stop-opacity="1" stop-color="rgb(19.90509%, 60.797119%, 63.023376%)" offset="0.078125"/><stop stop-opacity="1" stop-color="rgb(19.801331%, 60.597229%, 62.867737%)" offset="0.0859375"/><stop stop-opacity="1" stop-color="rgb(19.697571%, 60.395813%, 62.713623%)" offset="0.09375"/><stop stop-opacity="1" stop-color="rgb(19.593811%, 60.194397%, 62.559509%)" offset="0.101562"/><stop stop-opacity="1" stop-color="rgb(19.490051%, 59.992981%, 62.40387%)" offset="0.109375"/><stop stop-opacity="1" stop-color="rgb(19.386292%, 59.791565%, 62.249756%)" offset="0.117187"/><stop stop-opacity="1" stop-color="rgb(19.282532%, 59.590149%, 62.094116%)" offset="0.125"/><stop stop-opacity="1" stop-color="rgb(19.178772%, 59.388733%, 61.940002%)" offset="0.132813"/><stop stop-opacity="1" stop-color="rgb(19.075012%, 59.187317%, 61.784363%)" offset="0.140625"/><stop stop-opacity="1" stop-color="rgb(18.971252%, 58.987427%, 61.630249%)" offset="0.148438"/><stop stop-opacity="1" stop-color="rgb(18.867493%, 58.786011%, 61.476135%)" offset="0.15625"/><stop stop-opacity="1" stop-color="rgb(18.762207%, 58.584595%, 61.320496%)" offset="0.158642"/><stop stop-opacity="1" stop-color="rgb(18.710327%, 58.483887%, 61.244202%)" offset="0.164062"/><stop stop-opacity="1" stop-color="rgb(18.658447%, 58.383179%, 61.166382%)" offset="0.171875"/><stop stop-opacity="1" stop-color="rgb(18.554688%, 58.181763%, 61.010742%)" offset="0.179688"/><stop stop-opacity="1" stop-color="rgb(18.450928%, 57.980347%, 60.856628%)" offset="0.1875"/><stop stop-opacity="1" stop-color="rgb(18.347168%, 57.778931%, 60.700989%)" offset="0.195313"/><stop stop-opacity="1" stop-color="rgb(18.243408%, 57.579041%, 60.546875%)" offset="0.203125"/><stop stop-opacity="1" stop-color="rgb(18.139648%, 57.377625%, 60.392761%)" offset="0.210938"/><stop stop-opacity="1" stop-color="rgb(18.035889%, 57.176208%, 60.237122%)" offset="0.21875"/><stop stop-opacity="1" stop-color="rgb(17.932129%, 56.974792%, 60.083008%)" offset="0.226563"/><stop stop-opacity="1" stop-color="rgb(17.828369%, 56.773376%, 59.927368%)" offset="0.234375"/><stop stop-opacity="1" stop-color="rgb(17.724609%, 56.57196%, 59.773254%)" offset="0.242188"/><stop stop-opacity="1" stop-color="rgb(17.619324%, 56.370544%, 59.619141%)" offset="0.25"/><stop stop-opacity="1" stop-color="rgb(17.515564%, 56.170654%, 59.463501%)" offset="0.257812"/><stop stop-opacity="1" stop-color="rgb(17.411804%, 55.969238%, 59.309387%)" offset="0.265625"/><stop stop-opacity="1" stop-color="rgb(17.308044%, 55.767822%, 59.153748%)" offset="0.273438"/><stop stop-opacity="1" stop-color="rgb(17.204285%, 55.566406%, 58.999634%)" offset="0.28125"/><stop stop-opacity="1" stop-color="rgb(17.100525%, 55.36499%, 58.843994%)" offset="0.289062"/><stop stop-opacity="1" stop-color="rgb(16.996765%, 55.163574%, 58.68988%)" offset="0.296875"/><stop stop-opacity="1" stop-color="rgb(16.893005%, 54.962158%, 58.535767%)" offset="0.304687"/><stop stop-opacity="1" stop-color="rgb(16.789246%, 54.760742%, 58.380127%)" offset="0.3125"/><stop stop-opacity="1" stop-color="rgb(16.685486%, 54.560852%, 58.226013%)" offset="0.320313"/><stop stop-opacity="1" stop-color="rgb(16.5802%, 54.359436%, 58.070374%)" offset="0.328125"/><stop stop-opacity="1" stop-color="rgb(16.47644%, 54.15802%, 57.91626%)" offset="0.335938"/><stop stop-opacity="1" stop-color="rgb(16.372681%, 53.956604%, 57.76062%)" offset="0.34375"/><stop stop-opacity="1" stop-color="rgb(16.268921%, 53.755188%, 57.606506%)" offset="0.351563"/><stop stop-opacity="1" stop-color="rgb(16.165161%, 53.553772%, 57.452393%)" offset="0.359375"/><stop stop-opacity="1" stop-color="rgb(16.061401%, 53.352356%, 57.296753%)" offset="0.367188"/><stop stop-opacity="1" stop-color="rgb(15.957642%, 53.152466%, 57.142639%)" offset="0.375"/><stop stop-opacity="1" stop-color="rgb(15.853882%, 52.95105%, 56.987%)" offset="0.382813"/><stop stop-opacity="1" stop-color="rgb(15.750122%, 52.749634%, 56.832886%)" offset="0.390625"/><stop stop-opacity="1" stop-color="rgb(15.646362%, 52.548218%, 56.678772%)" offset="0.398438"/><stop stop-opacity="1" stop-color="rgb(15.542603%, 52.346802%, 56.523132%)" offset="0.40625"/><stop stop-opacity="1" stop-color="rgb(15.437317%, 52.145386%, 56.369019%)" offset="0.414062"/><stop stop-opacity="1" stop-color="rgb(15.333557%, 51.94397%, 56.213379%)" offset="0.421875"/><stop stop-opacity="1" stop-color="rgb(15.229797%, 51.742554%, 56.059265%)" offset="0.429688"/><stop stop-opacity="1" stop-color="rgb(15.126038%, 51.542664%, 55.903625%)" offset="0.4375"/><stop stop-opacity="1" stop-color="rgb(15.022278%, 51.341248%, 55.749512%)" offset="0.445313"/><stop stop-opacity="1" stop-color="rgb(14.918518%, 51.139832%, 55.595398%)" offset="0.453125"/><stop stop-opacity="1" stop-color="rgb(14.814758%, 50.938416%, 55.439758%)" offset="0.460938"/><stop stop-opacity="1" stop-color="rgb(14.710999%, 50.737%, 55.285645%)" offset="0.46875"/><stop stop-opacity="1" stop-color="rgb(14.607239%, 50.535583%, 55.130005%)" offset="0.476563"/><stop stop-opacity="1" stop-color="rgb(14.503479%, 50.334167%, 54.975891%)" offset="0.484375"/><stop stop-opacity="1" stop-color="rgb(14.399719%, 50.134277%, 54.820251%)" offset="0.492188"/><stop stop-opacity="1" stop-color="rgb(14.294434%, 49.932861%, 54.666138%)" offset="0.5"/><stop stop-opacity="1" stop-color="rgb(14.190674%, 49.731445%, 54.512024%)" offset="0.507813"/><stop stop-opacity="1" stop-color="rgb(14.086914%, 49.530029%, 54.356384%)" offset="0.515625"/><stop stop-opacity="1" stop-color="rgb(13.983154%, 49.328613%, 54.202271%)" offset="0.523438"/><stop stop-opacity="1" stop-color="rgb(13.879395%, 49.127197%, 54.046631%)" offset="0.53125"/><stop stop-opacity="1" stop-color="rgb(13.775635%, 48.925781%, 53.892517%)" offset="0.539063"/><stop stop-opacity="1" stop-color="rgb(13.671875%, 48.725891%, 53.738403%)" offset="0.546875"/><stop stop-opacity="1" stop-color="rgb(13.568115%, 48.524475%, 53.582764%)" offset="0.554688"/><stop stop-opacity="1" stop-color="rgb(13.464355%, 48.323059%, 53.42865%)" offset="0.5625"/><stop stop-opacity="1" stop-color="rgb(13.360596%, 48.121643%, 53.27301%)" offset="0.570313"/><stop stop-opacity="1" stop-color="rgb(13.25531%, 47.920227%, 53.118896%)" offset="0.578125"/><stop stop-opacity="1" stop-color="rgb(13.15155%, 47.718811%, 52.963257%)" offset="0.585938"/><stop stop-opacity="1" stop-color="rgb(13.047791%, 47.517395%, 52.809143%)" offset="0.59375"/><stop stop-opacity="1" stop-color="rgb(12.944031%, 47.315979%, 52.655029%)" offset="0.601563"/><stop stop-opacity="1" stop-color="rgb(12.840271%, 47.116089%, 52.49939%)" offset="0.609375"/><stop stop-opacity="1" stop-color="rgb(12.736511%, 46.914673%, 52.345276%)" offset="0.617188"/><stop stop-opacity="1" stop-color="rgb(12.632751%, 46.713257%, 52.189636%)" offset="0.625"/><stop stop-opacity="1" stop-color="rgb(12.528992%, 46.511841%, 52.035522%)" offset="0.632813"/><stop stop-opacity="1" stop-color="rgb(12.425232%, 46.310425%, 51.879883%)" offset="0.640625"/><stop stop-opacity="1" stop-color="rgb(12.321472%, 46.109009%, 51.725769%)" offset="0.648438"/><stop stop-opacity="1" stop-color="rgb(12.217712%, 45.907593%, 51.571655%)" offset="0.65625"/><stop stop-opacity="1" stop-color="rgb(12.112427%, 45.707703%, 51.416016%)" offset="0.664063"/><stop stop-opacity="1" stop-color="rgb(12.008667%, 45.506287%, 51.261902%)" offset="0.671875"/><stop stop-opacity="1" stop-color="rgb(11.904907%, 45.304871%, 51.106262%)" offset="0.679688"/><stop stop-opacity="1" stop-color="rgb(11.801147%, 45.103455%, 50.952148%)" offset="0.6875"/><stop stop-opacity="1" stop-color="rgb(11.697388%, 44.902039%, 50.798035%)" offset="0.695313"/><stop stop-opacity="1" stop-color="rgb(11.593628%, 44.700623%, 50.642395%)" offset="0.703125"/><stop stop-opacity="1" stop-color="rgb(11.489868%, 44.499207%, 50.488281%)" offset="0.710938"/><stop stop-opacity="1" stop-color="rgb(11.386108%, 44.297791%, 50.332642%)" offset="0.71875"/><stop stop-opacity="1" stop-color="rgb(11.282349%, 44.0979%, 50.178528%)" offset="0.726563"/><stop stop-opacity="1" stop-color="rgb(11.178589%, 43.896484%, 50.022888%)" offset="0.734375"/><stop stop-opacity="1" stop-color="rgb(11.074829%, 43.695068%, 49.868774%)" offset="0.742188"/><stop stop-opacity="1" stop-color="rgb(10.969543%, 43.493652%, 49.714661%)" offset="0.75"/><stop stop-opacity="1" stop-color="rgb(10.865784%, 43.292236%, 49.559021%)" offset="0.757813"/><stop stop-opacity="1" stop-color="rgb(10.762024%, 43.09082%, 49.404907%)" offset="0.765625"/><stop stop-opacity="1" stop-color="rgb(10.658264%, 42.889404%, 49.249268%)" offset="0.773438"/><stop stop-opacity="1" stop-color="rgb(10.554504%, 42.689514%, 49.095154%)" offset="0.78125"/><stop stop-opacity="1" stop-color="rgb(10.450745%, 42.488098%, 48.94104%)" offset="0.789062"/><stop stop-opacity="1" stop-color="rgb(10.346985%, 42.286682%, 48.7854%)" offset="0.796875"/><stop stop-opacity="1" stop-color="rgb(10.243225%, 42.085266%, 48.631287%)" offset="0.804688"/><stop stop-opacity="1" stop-color="rgb(10.139465%, 41.88385%, 48.475647%)" offset="0.8125"/><stop stop-opacity="1" stop-color="rgb(10.035706%, 41.682434%, 48.321533%)" offset="0.820312"/><stop stop-opacity="1" stop-color="rgb(9.93042%, 41.481018%, 48.165894%)" offset="0.828125"/><stop stop-opacity="1" stop-color="rgb(9.82666%, 41.279602%, 48.01178%)" offset="0.835938"/><stop stop-opacity="1" stop-color="rgb(9.7229%, 41.079712%, 47.857666%)" offset="0.841358"/><stop stop-opacity="1" stop-color="rgb(9.671021%, 40.979004%, 47.779846%)" offset="0.84375"/><stop stop-opacity="1" stop-color="rgb(9.619141%, 40.878296%, 47.702026%)" offset="0.851562"/><stop stop-opacity="1" stop-color="rgb(9.515381%, 40.67688%, 47.547913%)" offset="0.859375"/><stop stop-opacity="1" stop-color="rgb(9.411621%, 40.475464%, 47.392273%)" offset="0.867188"/><stop stop-opacity="1" stop-color="rgb(9.307861%, 40.274048%, 47.238159%)" offset="0.875"/><stop stop-opacity="1" stop-color="rgb(9.204102%, 40.072632%, 47.08252%)" offset="0.882812"/><stop stop-opacity="1" stop-color="rgb(9.100342%, 39.871216%, 46.928406%)" offset="0.890625"/><stop stop-opacity="1" stop-color="rgb(8.996582%, 39.671326%, 46.774292%)" offset="0.898438"/><stop stop-opacity="1" stop-color="rgb(8.892822%, 39.46991%, 46.618652%)" offset="0.90625"/><stop stop-opacity="1" stop-color="rgb(8.787537%, 39.268494%, 46.464539%)" offset="0.914063"/><stop stop-opacity="1" stop-color="rgb(8.683777%, 39.067078%, 46.308899%)" offset="0.921875"/><stop stop-opacity="1" stop-color="rgb(8.580017%, 38.865662%, 46.154785%)" offset="0.929688"/><stop stop-opacity="1" stop-color="rgb(8.476257%, 38.664246%, 46.000671%)" offset="0.9375"/><stop stop-opacity="1" stop-color="rgb(8.372498%, 38.46283%, 45.845032%)" offset="0.945313"/><stop stop-opacity="1" stop-color="rgb(8.268738%, 38.262939%, 45.690918%)" offset="0.953125"/><stop stop-opacity="1" stop-color="rgb(8.164978%, 38.061523%, 45.535278%)" offset="0.960938"/><stop stop-opacity="1" stop-color="rgb(8.061218%, 37.860107%, 45.381165%)" offset="0.96875"/><stop stop-opacity="1" stop-color="rgb(7.957458%, 37.658691%, 45.225525%)" offset="0.976563"/><stop stop-opacity="1" stop-color="rgb(7.853699%, 37.457275%, 45.071411%)" offset="0.984375"/><stop stop-opacity="1" stop-color="rgb(7.748413%, 37.255859%, 44.917297%)" offset="0.992188"/><stop stop-opacity="1" stop-color="rgb(7.644653%, 37.054443%, 44.761658%)" offset="1"/></linearGradient></defs><g clip-path="url(#30843e3bbf)"><path fill="#6fdc39" d="M 1148.792969 655.410156 L 1101.5 655.410156 L 1101.5 430.765625 C 1101.5 214.984375 927.101562 40.585938 711.324219 40.585938 C 495.542969 40.585938 321.144531 214.984375 321.144531 430.765625 L 321.144531 655.410156 L 273.851562 655.410156 C 208.820312 655.410156 155.617188 708.617188 155.617188 773.648438 L 155.617188 1341.175781 C 155.617188 1406.207031 208.820312 1459.410156 273.851562 1459.410156 L 1145.835938 1459.410156 C 1210.867188 1459.410156 1264.074219 1406.207031 1264.074219 1341.175781 L 1264.074219 773.648438 C 1267.027344 708.617188 1213.824219 655.410156 1148.792969 655.410156 Z M 380.261719 430.765625 C 380.261719 247.5 531.011719 99.707031 711.324219 99.707031 C 891.632812 99.707031 1042.382812 247.5 1042.382812 430.765625 L 1042.382812 655.410156 L 947.792969 655.410156 L 947.792969 430.765625 C 947.792969 300.707031 841.382812 194.292969 711.324219 194.292969 C 581.261719 194.292969 474.851562 300.707031 474.851562 430.765625 L 474.851562 655.410156 L 383.21875 655.410156 L 383.21875 430.765625 Z M 888.675781 655.410156 L 533.96875 655.410156 L 533.96875 430.765625 C 533.96875 333.21875 613.777344 253.410156 711.324219 253.410156 C 808.867188 253.410156 888.675781 333.21875 888.675781 430.765625 Z M 1207.910156 1341.175781 C 1207.910156 1373.691406 1181.308594 1400.292969 1148.792969 1400.292969 L 273.851562 1400.292969 C 241.335938 1400.292969 214.734375 1373.691406 214.734375 1341.175781 L 214.734375 773.648438 C 214.734375 741.132812 241.335938 714.527344 273.851562 714.527344 L 1145.835938 714.527344 C 1178.351562 714.527344 1204.953125 741.132812 1204.953125 773.648438 L 1204.953125 1341.175781 Z M 1207.910156 1341.175781 " fill-opacity="1" fill-rule="nonzero"/></g><path fill="#6fdc39" d="M 859.117188 992.382812 C 859.117188 912.574219 794.085938 844.589844 711.324219 844.589844 C 628.558594 844.589844 563.527344 909.617188 563.527344 992.382812 C 563.527344 1033.765625 581.261719 1075.148438 613.777344 1101.75 L 584.21875 1234.765625 C 581.261719 1243.632812 584.21875 1252.5 590.132812 1258.410156 C 596.042969 1264.324219 604.910156 1270.234375 613.777344 1270.234375 L 808.867188 1270.234375 C 817.734375 1270.234375 826.601562 1267.28125 832.511719 1258.410156 C 838.425781 1249.542969 841.382812 1243.632812 838.425781 1234.765625 L 808.867188 1101.75 C 841.382812 1075.148438 859.117188 1033.765625 859.117188 992.382812 Z M 758.617188 1066.277344 C 749.75 1072.191406 743.835938 1084.015625 746.792969 1095.839844 L 770.441406 1211.117188 L 652.203125 1211.117188 L 675.851562 1095.839844 C 678.808594 1084.015625 672.894531 1072.191406 664.027344 1066.277344 C 640.382812 1048.542969 625.601562 1021.941406 625.601562 992.382812 C 625.601562 945.089844 664.027344 903.707031 714.277344 903.707031 C 764.527344 903.707031 802.953125 942.132812 802.953125 992.382812 C 800 1021.941406 785.21875 1048.542969 758.617188 1066.277344 Z M 758.617188 1066.277344 " fill-opacity="1" fill-rule="nonzero"/><g clip-path="url(#2eae59b092)"><g clip-path="url(#c45f6a0c78)"><path fill="url(#2977405b8f)" d="M 706.308594 854.066406 L 706.308594 871.664062 L 716.496094 871.664062 L 716.496094 854.066406 Z M 706.308594 854.066406 " fill-rule="nonzero"/></g></g></svg>